<svg xmlns="http://www.w3.org/2000/svg" xmlns:xlink="http://www.w3.org/1999/xlink" width="1500" zoomAndPan="magnify" viewBox="0 0 1125 1124.99995" height="1500" preserveAspectRatio="xMidYMid meet" version="1.0"><defs><clipPath id="822ffab100"><path d="M 56.585938 22 L 1068 22 L 1068 1115 L 56.585938 1115 Z M 56.585938 22 " clip-rule="nonzero"/></clipPath></defs><path fill="#feae20" d="M 954.769531 711.464844 C 976.621094 678.683594 989.003906 640.078125 989.003906 599.285156 C 989.003906 526.4375 951.125 461.605469 888.480469 425.183594 L 819.277344 385.117188 L 819.277344 340.683594 L 913.246094 395.316406 C 975.894531 431.738281 1013.773438 496.570312 1013.773438 569.417969 C 1013.773438 623.324219 992.648438 674.3125 954.769531 711.464844 Z M 954.769531 711.464844 " fill-opacity="1" fill-rule="nonzero"/><path fill="#feae20" d="M 705.636719 600.011719 L 705.636719 862.984375 L 680.871094 877.550781 L 680.871094 630.605469 L 632.0625 630.605469 C 615.308594 630.605469 601.46875 616.765625 601.46875 600.011719 L 601.46875 259.097656 L 500.214844 200.820312 L 500.214844 156.382812 L 626.964844 229.230469 L 626.964844 569.417969 C 626.964844 586.171875 640.804688 600.011719 657.558594 600.011719 Z M 705.636719 600.011719 " fill-opacity="1" fill-rule="nonzero"/><g clip-path="url(#822ffab100)"><path fill="#3698fd" d="M 385.847656 1044.367188 C 377.832031 1047.28125 369.09375 1050.195312 361.078125 1052.382812 C 311.542969 1064.765625 259.097656 1057.480469 213.203125 1031.257812 C 150.554688 994.832031 112.675781 930 112.675781 857.15625 L 112.675781 280.222656 C 112.675781 238.699219 124.332031 200.089844 146.1875 168.039062 C 162.941406 143.273438 185.523438 122.148438 212.476562 106.121094 C 242.339844 89.367188 273.664062 79.898438 306.445312 79.167969 L 306.445312 569.417969 C 306.445312 586.171875 320.285156 600.011719 337.039062 600.011719 L 385.847656 600.011719 Z M 939.46875 345.78125 L 441.9375 57.316406 C 361.808594 10.695312 265.652344 10.695312 184.792969 57.316406 C 151.285156 76.984375 123.605469 102.480469 102.480469 132.347656 C 72.613281 174.597656 56.585938 225.585938 56.585938 280.222656 L 56.585938 856.425781 C 56.585938 949.667969 104.664062 1033.441406 184.792969 1079.332031 C 224.859375 1102.644531 269.292969 1114.300781 313.730469 1114.300781 C 332.667969 1114.300781 351.609375 1112.113281 369.820312 1107.742188 C 385.117188 1104.101562 405.515625 1099.730469 419.355469 1090.988281 C 419.355469 1090.988281 420.082031 1090.988281 420.8125 1090.261719 L 420.8125 598.554688 L 469.617188 598.554688 C 471.074219 598.554688 473.261719 598.554688 474.71875 597.828125 C 488.558594 594.914062 499.484375 582.527344 499.484375 567.960938 L 499.484375 155.65625 L 625.507812 228.5 L 625.507812 568.6875 C 625.507812 585.441406 639.347656 599.285156 656.101562 599.285156 L 704.910156 599.285156 L 704.910156 862.253906 L 680.140625 876.824219 L 471.804688 997.019531 L 471.804688 1062.578125 L 739.144531 908.148438 L 739.144531 842.585938 L 738.417969 842.585938 L 738.417969 599.285156 L 787.222656 599.285156 C 788.679688 599.285156 790.867188 599.285156 792.324219 598.554688 C 806.164062 595.640625 817.089844 583.257812 817.089844 568.6875 L 817.089844 339.953125 L 911.058594 394.589844 C 973.707031 431.011719 1011.585938 495.84375 1011.585938 568.6875 C 1011.585938 623.324219 990.460938 674.3125 952.582031 711.464844 C 940.199219 723.847656 926.359375 734.046875 911.058594 742.789062 L 790.136719 812.71875 L 790.136719 878.28125 L 939.46875 791.59375 C 960.59375 779.210938 980.261719 763.914062 996.289062 747.160156 C 1041.453125 699.808594 1067.675781 637.164062 1067.675781 568.6875 C 1068.40625 475.445312 1020.328125 392.402344 939.46875 345.78125 Z M 939.46875 345.78125 " fill-opacity="1" fill-rule="nonzero"/></g><path fill="#feae20" d="M 386.574219 600.011719 L 386.574219 1044.367188 C 378.5625 1047.28125 369.820312 1050.195312 361.808594 1052.382812 L 361.808594 629.878906 L 313 629.878906 C 296.246094 629.878906 282.40625 616.039062 282.40625 599.285156 L 282.40625 109.765625 C 249.625 111.21875 217.574219 119.960938 188.4375 136.714844 C 173.136719 145.457031 159.296875 156.382812 146.914062 168.769531 C 163.667969 144 186.25 122.875 213.203125 106.851562 C 243.070312 90.09375 275.121094 80.625 307.171875 79.898438 L 307.171875 570.144531 C 307.171875 586.898438 321.015625 600.742188 337.769531 600.742188 L 386.574219 600.742188 Z M 386.574219 600.011719 " fill-opacity="1" fill-rule="nonzero"/><path fill="#3698fd" d="M 426.640625 116.320312 L 469.617188 141.085938 L 469.617188 465.25 Z M 426.640625 116.320312 " fill-opacity="1" fill-rule="nonzero"/><path fill="#3698fd" d="M 766.097656 307.175781 L 795.238281 323.929688 L 795.238281 541.734375 Z M 766.097656 307.175781 " fill-opacity="1" fill-rule="nonzero"/></svg>
